<?xml version="1.0" encoding="UTF-8" standalone="no"?>
<!-- Created with Inkscape (http://www.inkscape.org/) -->

<svg
   width="79.374565mm"
   height="19.645313mm"
   viewBox="0 0 79.374565 19.645313"
   version="1.1"
   id="svg1"
   xmlns="http://www.w3.org/2000/svg"
   xmlns:svg="http://www.w3.org/2000/svg">
  <defs
     id="defs1" />
  <g
     id="layer1"
     transform="translate(-20.902252,-37.400463)">
    <rect
       style="fill:#333333;stroke:none;stroke-width:0.500001;stroke-linecap:square;paint-order:normal"
       id="rect5"
       width="79.374565"
       height="19.645313"
       x="20.902252"
       y="37.400463" />
    <rect
       style="fill:#333333;stroke:#ffffff;stroke-width:0.5;stroke-linecap:square;paint-order:normal"
       id="rect1"
       width="13.43275"
       height="13.43275"
       x="40.506744"
       y="-51.908478"
       transform="rotate(90)" />
    <g
       id="g79"
       transform="matrix(0,0.65207521,-0.65207521,0,57.968249,-146.43148)"
       style="stroke-width:1.53357">
      <path
         style="fill:#000000;fill-opacity:0;stroke:#ffffff;stroke-width:0.306713;stroke-linecap:square;paint-order:normal"
         d="m 286.58786,19.593056 h 20.78829"
         id="path47" />
      <path
         style="fill:#000000;fill-opacity:0;stroke:#ffffff;stroke-width:0.306713;stroke-linecap:square;paint-order:normal"
         d="m 286.58786,18.534722 h 20.78829"
         id="path73" />
      <path
         style="fill:#000000;fill-opacity:0;stroke:#ffffff;stroke-width:0.306713;stroke-linecap:square;paint-order:normal"
         d="m 286.58786,17.476388 h 20.78829"
         id="path75" />
      <path
         style="fill:#000000;fill-opacity:0;stroke:#ffffff;stroke-width:0.306713;stroke-linecap:square;paint-order:normal"
         d="m 286.58786,20.65139 h 20.78829"
         id="path77" />
      <path
         style="fill:#000000;fill-opacity:0;stroke:#ffffff;stroke-width:0.306713;stroke-linecap:square;paint-order:normal"
         d="m 286.58786,21.709724 h 20.78829"
         id="path79" />
    </g>
    <g
       id="g288"
       transform="matrix(0,0.65207521,-0.65207521,0,73.150696,-163.68428)"
       style="stroke-width:1.53357">
      <rect
         style="fill:#333333;stroke:#ffffff;stroke-width:0.766783;stroke-linecap:square;paint-order:normal"
         id="rect2"
         width="20.6"
         height="20.6"
         x="313.14029"
         y="9.2930555" />
      <g
         id="g90"
         transform="rotate(90,310.21114,32.822201)"
         style="stroke-width:1.53357">
        <path
           style="fill:#000000;fill-opacity:0;stroke:#ffffff;stroke-width:0.306713;stroke-linecap:square;paint-order:normal"
           d="m 286.58786,19.593056 h 20.78829"
           id="path81" />
        <path
           style="fill:#000000;fill-opacity:0;stroke:#ffffff;stroke-width:0.306713;stroke-linecap:square;paint-order:normal"
           d="m 286.58786,18.534722 h 20.78829"
           id="path84" />
        <path
           style="fill:#000000;fill-opacity:0;stroke:#ffffff;stroke-width:0.306713;stroke-linecap:square;paint-order:normal"
           d="m 286.58786,17.476388 h 20.78829"
           id="path86" />
        <path
           style="fill:#000000;fill-opacity:0;stroke:#ffffff;stroke-width:0.306713;stroke-linecap:square;paint-order:normal"
           d="m 286.58786,20.65139 h 20.78829"
           id="path88" />
        <path
           style="fill:#000000;fill-opacity:0;stroke:#ffffff;stroke-width:0.306713;stroke-linecap:square;paint-order:normal"
           d="m 286.58786,21.709724 h 20.78829"
           id="path90" />
      </g>
    </g>
    <g
       id="g286"
       transform="matrix(0.65207521,0,0,0.65207521,-146.39217,34.446974)"
       style="stroke-width:1.53357">
      <path
         id="rect90"
         style="fill:#333333;stroke:#ffffff;stroke-width:0.766783;stroke-linecap:square"
         d="m 260.22372,9.2930555 h 20.6 V 29.893056 h -20.6 z" />
      <path
         id="path93"
         style="fill-opacity:0;stroke:#ffffff;stroke-width:0.306713;stroke-linecap:square"
         d="m 278.07858,19.593056 a 7.5548582,7.5548582 0 0 1 -7.55486,7.554858 7.5548582,7.5548582 0 0 1 -7.55486,-7.554858 7.5548582,7.5548582 0 0 1 7.55486,-7.554858 7.5548582,7.5548582 0 0 1 7.55486,7.554858 z" />
      <path
         id="path97"
         style="fill-opacity:0;stroke:#ffffff;stroke-width:0.306713;stroke-linecap:square"
         d="m 277.07872,19.593056 a 6.5550001,6.5550001 0 0 1 -6.555,6.555 6.5550001,6.5550001 0 0 1 -6.555,-6.555 6.5550001,6.5550001 0 0 1 6.555,-6.555 6.5550001,6.5550001 0 0 1 6.555,6.555 z" />
      <path
         id="path99"
         style="fill-opacity:0;stroke:#ffffff;stroke-width:0.306713;stroke-linecap:square"
         d="m 276.07872,19.593056 a 5.5550001,5.5550001 0 0 1 -5.555,5.555 5.5550001,5.5550001 0 0 1 -5.555,-5.555 5.5550001,5.5550001 0 0 1 5.555,-5.555 5.5550001,5.5550001 0 0 1 5.555,5.555 z" />
      <path
         id="path103"
         style="fill-opacity:0;stroke:#ffffff;stroke-width:0.306713;stroke-linecap:square"
         d="m 275.07872,19.593056 a 4.5550001,4.5550001 0 0 1 -4.555,4.555 4.5550001,4.5550001 0 0 1 -4.555,-4.555 4.5550001,4.5550001 0 0 1 4.555,-4.555 4.5550001,4.5550001 0 0 1 4.555,4.555 z" />
      <path
         id="path105"
         style="fill-opacity:0;stroke:#ffffff;stroke-width:0.306713;stroke-linecap:square"
         d="m 274.07872,19.593056 a 3.5550001,3.5550001 0 0 1 -3.555,3.555 3.5550001,3.5550001 0 0 1 -3.555,-3.555 3.5550001,3.5550001 0 0 1 3.555,-3.555 3.5550001,3.5550001 0 0 1 3.555,3.555 z" />
    </g>
    <g
       id="g289"
       transform="matrix(0.65207521,0,0,0.65207521,-152.60319,34.446974)"
       style="stroke-width:1.53357">
      <rect
         style="fill:#333333;stroke:#ffffff;stroke-width:0.766783;stroke-linecap:square;paint-order:normal"
         id="rect3"
         width="20.6"
         height="20.6"
         x="339.59857"
         y="9.2930555" />
      <g
         id="g115"
         transform="translate(52.916567)"
         style="stroke-width:1.53357">
        <path
           style="fill:#000000;fill-opacity:0;stroke:#ffffff;stroke-width:0.306713;stroke-linecap:square;paint-order:normal"
           d="m 286.58786,19.593056 h 20.78829"
           id="path107" />
        <path
           style="fill:#000000;fill-opacity:0;stroke:#ffffff;stroke-width:0.306713;stroke-linecap:square;paint-order:normal"
           d="m 286.58786,18.534722 h 20.78829"
           id="path109" />
        <path
           style="fill:#000000;fill-opacity:0;stroke:#ffffff;stroke-width:0.306713;stroke-linecap:square;paint-order:normal"
           d="m 286.58786,17.476388 h 20.78829"
           id="path111" />
        <path
           style="fill:#000000;fill-opacity:0;stroke:#ffffff;stroke-width:0.306713;stroke-linecap:square;paint-order:normal"
           d="m 286.58786,20.65139 h 20.78829"
           id="path113" />
        <path
           style="fill:#000000;fill-opacity:0;stroke:#ffffff;stroke-width:0.306713;stroke-linecap:square;paint-order:normal"
           d="m 286.58786,21.709724 h 20.78829"
           id="path115" />
      </g>
      <g
         id="g126"
         transform="rotate(90,323.44028,46.051344)"
         style="stroke-width:1.53357">
        <path
           style="fill:#000000;fill-opacity:0;stroke:#ffffff;stroke-width:0.306713;stroke-linecap:square;paint-order:normal"
           d="m 286.58786,19.593056 h 20.78829"
           id="path117" />
        <path
           style="fill:#000000;fill-opacity:0;stroke:#ffffff;stroke-width:0.306713;stroke-linecap:square;paint-order:normal"
           d="m 286.58786,18.534722 h 20.78829"
           id="path119" />
        <path
           style="fill:#000000;fill-opacity:0;stroke:#ffffff;stroke-width:0.306713;stroke-linecap:square;paint-order:normal"
           d="m 286.58786,17.476388 h 20.78829"
           id="path121" />
        <path
           style="fill:#000000;fill-opacity:0;stroke:#ffffff;stroke-width:0.306713;stroke-linecap:square;paint-order:normal"
           d="m 286.58786,20.65139 h 20.78829"
           id="path124" />
        <path
           style="fill:#000000;fill-opacity:0;stroke:#ffffff;stroke-width:0.306713;stroke-linecap:square;paint-order:normal"
           d="m 286.58786,21.709724 h 20.78829"
           id="path126" />
      </g>
    </g>
    <g
       id="g290"
       transform="matrix(0.65207521,0,0,0.65207521,-154.67353,34.446974)"
       style="stroke-width:1.53357">
      <rect
         style="fill:#333333;stroke:#ffffff;stroke-width:0.766783;stroke-linecap:square;paint-order:normal"
         id="rect4"
         width="20.6"
         height="20.6"
         x="366.05685"
         y="9.2930555" />
      <rect
         style="fill:#333333;stroke:#ffffff;stroke-width:0.766783;stroke-linecap:square;paint-order:normal"
         id="rect126"
         width="20.6"
         height="20.6"
         x="366.05685"
         y="9.2930555" />
      <path
         id="path199"
         style="fill:#000000;fill-opacity:0;stroke:#ffffff;stroke-width:0.306713;stroke-linecap:square;paint-order:normal"
         d="M 383.5632,9.3391657 366.04128,26.901988 Z m 1.49954,-0.0042 -19.0167,19.0610983 z M 366.06262,29.87775 386.61053,9.2818667 Z m 20.60981,-19.159632 -19.14144,19.186127 z m -0.0659,1.564921 -17.5072,17.548077 z" />
      <path
         id="path273"
         style="fill:#000000;fill-opacity:0;stroke:#ffffff;stroke-width:0.306713;stroke-linecap:square;paint-order:normal"
         d="m 369.05593,9.2860507 17.55965,17.5243003 z m -1.49366,0.0044 19.07909,19.0406873 z m -1.44768,0.05075 20.56336,20.5215503 z M 385.21732,29.900061 366.03576,10.757102 Z m -1.58795,-0.08919 -17.58695,-17.551558 z" />
    </g>
  </g>
</svg>
